<svg id="kity_svg_6" xmlns="http://www.w3.org/2000/svg" xmlns:xlink="http://www.w3.org/1999/xlink" version="1.1" width="1119" height="527" style="display: inline; background: rgb(251, 251, 251);" viewBox="0 0 1119 527"><defs id="kity_defs_7"><linearGradient id="kity_linearGradient_17" x1="0" y1="0" x2="0" y2="1"><stop id="kity_stop_18" offset="0" stop-color="rgb(255, 255, 255)"></stop><stop id="kity_stop_19" offset="1" stop-color="rgb(204, 204, 204)"></stop></linearGradient><marker id="kity_marker_2" orient="auto" refX="6" refY="0" viewBox="-7 -7 14 14" markerWidth="7" markerHeight="7" markerUnits="userSpaceOnUse"><path id="kity_path_3" fill="rgb(115, 161, 191)" stroke="none" d="M6,0A6,6,0,1,1,-6,0A6,6,0,1,1,6,0"></path></marker></defs><g id="kity_g_8"><g id="minder1" text-rendering="optimize-speed"><g id="minder_connect_group1"><path id="kity_path_31" fill="none" stroke="rgb(115, 161, 191)" stroke-width="1" d="M83,198.5A195.5,78,0,0,1,278.5,120.5"></path><path id="kity_path_33" fill="none" stroke="rgb(115, 161, 191)" stroke-width="1" d="M376.5,120.5C395,120.5,395,95.5,413.5,95.5L618.5,95.5"></path><path id="kity_path_35" fill="none" stroke="rgb(115, 161, 191)" stroke-width="1" d="M376.5,120.5C396,120.5,396,156.5,415.5,156.5L712.5,156.5"></path><path id="kity_path_37" fill="none" stroke="rgb(115, 161, 191)" stroke-width="1" d="M83,198.5A205.5,209,0,0,0,288.5,407.5"></path><path id="kity_path_39" fill="none" stroke="rgb(115, 161, 191)" stroke-width="1" d="M413.5,407.5C428.5,407.5,428.5,339.5,443.5,339.5L740.5,339.5"></path><path id="kity_path_41" fill="none" stroke="rgb(115, 161, 191)" stroke-width="1" d="M413.5,407.5C428.5,407.5,428.5,395.5,443.5,395.5L1088.5,395.5"></path><path id="kity_path_43" fill="none" stroke="rgb(115, 161, 191)" stroke-width="1" d="M413.5,407.5C428.5,407.5,428.5,451.5,443.5,451.5L1099.5,451.5"></path><path id="kity_path_45" fill="none" stroke="rgb(115, 161, 191)" stroke-width="1" d="M413.5,407.5C428.5,407.5,428.5,507.5,443.5,507.5L1099.5,507.5"></path><path id="kity_path_47" fill="none" stroke="rgb(115, 161, 191)" stroke-width="1" d="M83,198.5A104.5,33,0,0,0,187.5,231.5"></path><path id="kity_path_49" fill="none" stroke="rgb(115, 161, 191)" stroke-width="1" d="M303.5,231.5C320.5,231.5,320.5,206.5,337.5,206.5L546.5,206.5"></path><path id="kity_path_51" fill="none" stroke="rgb(115, 161, 191)" stroke-width="1" d="M303.5,231.5C321,231.5,321,261.5,338.5,261.5L630.5,261.5"></path><path id="kity_path_53" fill="none" stroke="rgb(115, 161, 191)" stroke-width="1" d="M83,198.5A138.5,151,0,0,1,221.5,47.5"></path><path id="kity_path_55" fill="none" stroke="rgb(115, 161, 191)" stroke-width="1" d="M359.5,47.5C370,47.5,370,49.5,380.5,49.5L504.5,49.5"></path></g><g id="minder_node1"><path id="node_outline1" fill="rgb(115, 161, 191)" stroke="rgb(115, 161, 191)" d="M25.5,177.5h115a5,5,0,0,1,5,5v32a5,5,0,0,1,-5,5h-115a5,5,0,0,1,-5,-5v-32a5,5,0,0,1,5,-5z" stroke-width="3"></path><g id="node_text1" fill="white"><text id="kity_text_22" text-rendering="inherit" font-size="18" dy=".8em" y="186.79999995231628" x="44.5">旧物继承&#xa0;</text></g></g><g id="kity_g_12"><path id="kity_path_13" fill="none" stroke="none" d="M44.5,198.5h0v0h0z"></path></g><g id="kity_g_14"><path id="kity_path_15" fill="none" stroke="none" d="M44.5,198.5h0v0h0z"></path><path id="kity_path_16" fill="none" stroke="none"></path></g><g id="minder_node2"><g id="node_expander3" style="cursor: pointer;"><path id="kity_path_102" fill="white" stroke="gray" d="M279.5,120.5A6,6,0,1,1,267.5,120.5A6,6,0,1,1,279.5,120.5"></path><path id="kity_path_103" fill="none" stroke="gray" d="M269,120.5L278,120.5"></path></g><path id="node_outline4" fill="rgb(238, 243, 246)" stroke="rgb(115, 161, 191)" d="M283.5,105.5h90a3,3,0,0,1,3,3v24a3,3,0,0,1,-3,3h-90a3,3,0,0,1,-3,-3v-24a3,3,0,0,1,3,-3z" stroke-width="1"></path><g id="node_text4" fill="black"><text id="kity_text_61" text-rendering="inherit" font-size="18" dy=".8em" y="108.79999995231628" x="300.5">starter</text></g></g><g id="minder_node3"><g id="node_expander1" style="cursor: pointer;" display="none"><path id="kity_path_96" fill="white" stroke="gray" d="M423.5,79.5A6,6,0,1,1,411.5,79.5A6,6,0,1,1,423.5,79.5"></path><path id="kity_path_97" fill="none" stroke="gray"></path></g><path id="node_outline2" fill="none" stroke="none" d="M428.5,66.5h185a5,5,0,0,1,5,5v16a5,5,0,0,1,-5,5h-185a5,5,0,0,1,-5,-5v-16a5,5,0,0,1,5,-5z" stroke-width="3"></path><g id="node_text2" fill="black"><text id="kity_text_57" text-rendering="inherit" font-size="16" dy=".8em" y="69.09999990463257" x="433.5">依赖：ionic、controller</text></g></g><g id="minder_node4"><g id="node_expander2" style="cursor: pointer;" display="none"><path id="kity_path_99" fill="white" stroke="gray" d="M425.5,140.5A6,6,0,1,1,413.5,140.5A6,6,0,1,1,425.5,140.5"></path><path id="kity_path_100" fill="none" stroke="gray"></path></g><path id="node_outline3" fill="none" stroke="none" d="M430.5,127.5h277a5,5,0,0,1,5,5v16a5,5,0,0,1,-5,5h-277a5,5,0,0,1,-5,-5v-16a5,5,0,0,1,5,-5z" stroke-width="3"></path><g id="node_text3" fill="black"><text id="kity_text_59" text-rendering="inherit" font-size="16" dy=".8em" y="130.09999990463257" x="435.5">作用：对路由的设置、对 post 的处理</text></g></g><g id="minder_node5"><g id="node_expander8" style="cursor: pointer;"><path id="kity_path_117" fill="white" stroke="gray" d="M289.5,407.5A6,6,0,1,1,277.5,407.5A6,6,0,1,1,289.5,407.5"></path><path id="kity_path_118" fill="none" stroke="gray" d="M279,407.5L288,407.5"></path></g><path id="node_outline9" fill="rgb(238, 243, 246)" stroke="rgb(115, 161, 191)" d="M293.5,392.5h117a3,3,0,0,1,3,3v24a3,3,0,0,1,-3,3h-117a3,3,0,0,1,-3,-3v-24a3,3,0,0,1,3,-3z" stroke-width="1"></path><g id="node_text9" fill="black"><text id="kity_text_71" text-rendering="inherit" font-size="18" dy=".8em" y="395.7999999523163" x="310.5">controller</text></g></g><g id="minder_node6"><g id="node_expander4" style="cursor: pointer;" display="none"><path id="kity_path_105" fill="white" stroke="gray" d="M453.5,323.5A6,6,0,1,1,441.5,323.5A6,6,0,1,1,453.5,323.5"></path><path id="kity_path_106" fill="none" stroke="gray"></path></g><path id="node_outline5" fill="none" stroke="none" d="M458.5,310.5h277a5,5,0,0,1,5,5v16a5,5,0,0,1,-5,5h-277a5,5,0,0,1,-5,-5v-16a5,5,0,0,1,5,-5z" stroke-width="3"></path><g id="node_text5" fill="black"><text id="kity_text_63" text-rendering="inherit" font-size="16" dy=".8em" y="313.09999990463257" x="463.5">依赖：ionic、ngCordova、factories</text></g></g><g id="minder_node7"><g id="node_expander5" style="cursor: pointer;" display="none"><path id="kity_path_108" fill="white" stroke="gray" d="M453.5,379.5A6,6,0,1,1,441.5,379.5A6,6,0,1,1,453.5,379.5"></path><path id="kity_path_109" fill="none" stroke="gray"></path></g><path id="node_outline6" fill="none" stroke="none" d="M458.5,366.5h625a5,5,0,0,1,5,5v16a5,5,0,0,1,-5,5h-625a5,5,0,0,1,-5,-5v-16a5,5,0,0,1,5,-5z" stroke-width="3"></path><g id="node_text6" fill="black"><text id="kity_text_65" text-rendering="inherit" font-size="16" dy=".8em" y="369.09999990463257" x="463.5">TabCtrl：绑定学号、取消绑定、获取用户信息、从相册或相机获取图片、上传二手商品</text></g></g><g id="minder_node8"><g id="node_expander6" style="cursor: pointer;" display="none"><path id="kity_path_111" fill="white" stroke="gray" d="M453.5,435.5A6,6,0,1,1,441.5,435.5A6,6,0,1,1,453.5,435.5"></path><path id="kity_path_112" fill="none" stroke="gray"></path></g><path id="node_outline7" fill="none" stroke="none" d="M458.5,422.5h636a5,5,0,0,1,5,5v16a5,5,0,0,1,-5,5h-636a5,5,0,0,1,-5,-5v-16a5,5,0,0,1,5,-5z" stroke-width="3"></path><g id="node_text7" fill="black"><text id="kity_text_67" text-rendering="inherit" font-size="16" dy=".8em" y="425.09999990463257" x="463.5">MainCtrl：分类浏览商品、按商品名检索商品、下拉更新、触底加载更多、查看商品详情</text></g></g><g id="minder_node9"><g id="node_expander7" style="cursor: pointer;" display="none"><path id="kity_path_114" fill="white" stroke="gray" d="M453.5,491.5A6,6,0,1,1,441.5,491.5A6,6,0,1,1,453.5,491.5"></path><path id="kity_path_115" fill="none" stroke="gray"></path></g><path id="node_outline8" fill="none" stroke="none" d="M458.5,478.5h636a5,5,0,0,1,5,5v16a5,5,0,0,1,-5,5h-636a5,5,0,0,1,-5,-5v-16a5,5,0,0,1,5,-5z" stroke-width="3"></path><g id="node_text8" fill="black"><text id="kity_text_69" text-rendering="inherit" font-size="16" dy=".8em" y="481.09999990463257" x="463.5">SettingCtrl：反馈建议、查看我的二手商品、并可以修改信息和上下架、用户的基本操作</text></g></g><g id="minder_node10"><g id="node_expander11" style="cursor: pointer;"><path id="kity_path_126" fill="white" stroke="gray" d="M316.5,231.5A6,6,0,1,1,304.5,231.5A6,6,0,1,1,316.5,231.5"></path><path id="kity_path_127" fill="none" stroke="gray" d="M306,231.5L315,231.5"></path></g><path id="node_outline12" fill="rgb(238, 243, 246)" stroke="rgb(115, 161, 191)" d="M192.5,216.5h108a3,3,0,0,1,3,3v24a3,3,0,0,1,-3,3h-108a3,3,0,0,1,-3,-3v-24a3,3,0,0,1,3,-3z" stroke-width="1"></path><g id="node_text12" fill="black"><text id="kity_text_77" text-rendering="inherit" font-size="18" dy=".8em" y="219.79999995231628" x="209.5">factories</text></g></g><g id="minder_node11"><g id="node_expander9" style="cursor: pointer;" display="none"><path id="kity_path_120" fill="white" stroke="gray" d="M347.5,190.5A6,6,0,1,1,335.5,190.5A6,6,0,1,1,347.5,190.5"></path><path id="kity_path_121" fill="none" stroke="gray"></path></g><path id="node_outline10" fill="none" stroke="none" d="M352.5,177.5h189a5,5,0,0,1,5,5v16a5,5,0,0,1,-5,5h-189a5,5,0,0,1,-5,-5v-16a5,5,0,0,1,5,-5z" stroke-width="3"></path><g id="node_text10" fill="black"><text id="kity_text_73" text-rendering="inherit" font-size="16" dy=".8em" y="180.09999990463257" x="357.5">封装HttpClient 请求函数</text></g></g><g id="minder_node12"><g id="node_expander10" style="cursor: pointer;" display="none"><path id="kity_path_123" fill="white" stroke="gray" d="M348.5,245.5A6,6,0,1,1,336.5,245.5A6,6,0,1,1,348.5,245.5"></path><path id="kity_path_124" fill="none" stroke="gray"></path></g><path id="node_outline11" fill="none" stroke="none" d="M353.5,232.5h272a5,5,0,0,1,5,5v16a5,5,0,0,1,-5,5h-272a5,5,0,0,1,-5,-5v-16a5,5,0,0,1,5,-5z" stroke-width="3"></path><g id="node_text11" fill="black"><text id="kity_text_75" text-rendering="inherit" font-size="16" dy=".8em" y="235.09999990463257" x="358.5">封装了UserData用于模块间共享数据</text></g></g><g id="minder_node13"><g id="node_expander13" style="cursor: pointer;"><path id="kity_path_132" fill="white" stroke="gray" d="M372.5,47.5A6,6,0,1,1,360.5,47.5A6,6,0,1,1,372.5,47.5"></path><path id="kity_path_133" fill="none" stroke="gray" d="M362,47.5L371,47.5"></path></g><path id="node_outline14" fill="rgb(238, 243, 246)" stroke="rgb(115, 161, 191)" d="M226.5,32.5h130a3,3,0,0,1,3,3v24a3,3,0,0,1,-3,3h-130a3,3,0,0,1,-3,-3v-24a3,3,0,0,1,3,-3z" stroke-width="1"></path><g id="node_text14" fill="black"><text id="kity_text_81" text-rendering="inherit" font-size="18" dy=".8em" y="35.799999952316284" x="243.5">app-conf.js</text></g></g><g id="minder_node14"><g id="node_expander12" style="cursor: pointer;" display="none"><path id="kity_path_129" fill="white" stroke="gray" d="M390.5,33.5A6,6,0,1,1,378.5,33.5A6,6,0,1,1,390.5,33.5"></path><path id="kity_path_130" fill="none" stroke="gray"></path></g><path id="node_outline13" fill="none" stroke="none" d="M395.5,20.5h104a5,5,0,0,1,5,5v16a5,5,0,0,1,-5,5h-104a5,5,0,0,1,-5,-5v-16a5,5,0,0,1,5,-5z" stroke-width="3"></path><g id="node_text13" fill="black"><text id="kity_text_79" text-rendering="inherit" font-size="16" dy=".8em" y="23.09999990463257" x="400.5">API 集中管理</text></g></g></g></g></svg>